<mxfile host="app.diagrams.net" modified="2023-10-17T20:19:39.737Z" agent="Mozilla/5.0 (Windows NT 10.0; Win64; x64) AppleWebKit/537.36 (KHTML, like Gecko) Chrome/118.0.0.0 Safari/537.36" etag="l7T66G3CYQooRiGxE2St" version="22.0.4" type="device">
  <diagram name="Page-1" id="KquCGv9GYSvPbHu08qhD">
    <mxGraphModel dx="1050" dy="613" grid="1" gridSize="10" guides="1" tooltips="1" connect="1" arrows="1" fold="1" page="1" pageScale="1" pageWidth="850" pageHeight="1100" math="0" shadow="0">
      <root>
        <mxCell id="0" />
        <mxCell id="1" parent="0" />
        <mxCell id="g76yo03-grwDFgat9Bag-1" value="Start" style="rounded=1;whiteSpace=wrap;html=1;" vertex="1" parent="1">
          <mxGeometry x="320" y="10" width="120" height="60" as="geometry" />
        </mxCell>
        <mxCell id="g76yo03-grwDFgat9Bag-7" value="S" style="edgeStyle=orthogonalEdgeStyle;rounded=0;orthogonalLoop=1;jettySize=auto;html=1;entryX=0.5;entryY=0;entryDx=0;entryDy=0;" edge="1" parent="1" source="g76yo03-grwDFgat9Bag-2" target="g76yo03-grwDFgat9Bag-4">
          <mxGeometry relative="1" as="geometry" />
        </mxCell>
        <mxCell id="g76yo03-grwDFgat9Bag-9" value="L" style="edgeStyle=orthogonalEdgeStyle;rounded=0;orthogonalLoop=1;jettySize=auto;html=1;entryX=0.5;entryY=0;entryDx=0;entryDy=0;" edge="1" parent="1" source="g76yo03-grwDFgat9Bag-2" target="g76yo03-grwDFgat9Bag-6">
          <mxGeometry relative="1" as="geometry" />
        </mxCell>
        <mxCell id="g76yo03-grwDFgat9Bag-10" value="M" style="edgeStyle=orthogonalEdgeStyle;rounded=0;orthogonalLoop=1;jettySize=auto;html=1;entryX=0.5;entryY=0;entryDx=0;entryDy=0;" edge="1" parent="1" source="g76yo03-grwDFgat9Bag-2" target="g76yo03-grwDFgat9Bag-5">
          <mxGeometry relative="1" as="geometry" />
        </mxCell>
        <mxCell id="g76yo03-grwDFgat9Bag-2" value="pizza size?" style="strokeWidth=2;html=1;shape=mxgraph.flowchart.decision;whiteSpace=wrap;" vertex="1" parent="1">
          <mxGeometry x="330" y="110" width="100" height="100" as="geometry" />
        </mxCell>
        <mxCell id="g76yo03-grwDFgat9Bag-3" style="edgeStyle=orthogonalEdgeStyle;rounded=0;orthogonalLoop=1;jettySize=auto;html=1;entryX=0.5;entryY=0;entryDx=0;entryDy=0;entryPerimeter=0;" edge="1" parent="1" source="g76yo03-grwDFgat9Bag-1" target="g76yo03-grwDFgat9Bag-2">
          <mxGeometry relative="1" as="geometry" />
        </mxCell>
        <mxCell id="g76yo03-grwDFgat9Bag-14" style="edgeStyle=orthogonalEdgeStyle;rounded=0;orthogonalLoop=1;jettySize=auto;html=1;entryX=0;entryY=0.5;entryDx=0;entryDy=0;" edge="1" parent="1" source="g76yo03-grwDFgat9Bag-4" target="g76yo03-grwDFgat9Bag-11">
          <mxGeometry relative="1" as="geometry" />
        </mxCell>
        <mxCell id="g76yo03-grwDFgat9Bag-4" value="+15" style="rounded=1;whiteSpace=wrap;html=1;" vertex="1" parent="1">
          <mxGeometry x="70" y="210" width="120" height="60" as="geometry" />
        </mxCell>
        <mxCell id="g76yo03-grwDFgat9Bag-12" value="" style="edgeStyle=orthogonalEdgeStyle;rounded=0;orthogonalLoop=1;jettySize=auto;html=1;" edge="1" parent="1" source="g76yo03-grwDFgat9Bag-5" target="g76yo03-grwDFgat9Bag-11">
          <mxGeometry relative="1" as="geometry" />
        </mxCell>
        <mxCell id="g76yo03-grwDFgat9Bag-5" value="+20" style="rounded=1;whiteSpace=wrap;html=1;" vertex="1" parent="1">
          <mxGeometry x="320" y="270" width="120" height="60" as="geometry" />
        </mxCell>
        <mxCell id="g76yo03-grwDFgat9Bag-15" style="edgeStyle=orthogonalEdgeStyle;rounded=0;orthogonalLoop=1;jettySize=auto;html=1;entryX=1;entryY=0.5;entryDx=0;entryDy=0;" edge="1" parent="1" source="g76yo03-grwDFgat9Bag-6" target="g76yo03-grwDFgat9Bag-11">
          <mxGeometry relative="1" as="geometry" />
        </mxCell>
        <mxCell id="g76yo03-grwDFgat9Bag-6" value="+25" style="rounded=1;whiteSpace=wrap;html=1;" vertex="1" parent="1">
          <mxGeometry x="590" y="210" width="120" height="60" as="geometry" />
        </mxCell>
        <mxCell id="g76yo03-grwDFgat9Bag-17" value="" style="edgeStyle=orthogonalEdgeStyle;rounded=0;orthogonalLoop=1;jettySize=auto;html=1;" edge="1" parent="1" source="g76yo03-grwDFgat9Bag-11" target="g76yo03-grwDFgat9Bag-16">
          <mxGeometry relative="1" as="geometry" />
        </mxCell>
        <mxCell id="g76yo03-grwDFgat9Bag-11" value="Pepperoni?" style="rhombus;whiteSpace=wrap;html=1;rounded=1;" vertex="1" parent="1">
          <mxGeometry x="340" y="430" width="80" height="80" as="geometry" />
        </mxCell>
        <mxCell id="g76yo03-grwDFgat9Bag-16" value="" style="rhombus;whiteSpace=wrap;html=1;rounded=1;" vertex="1" parent="1">
          <mxGeometry x="260" y="610" width="80" height="80" as="geometry" />
        </mxCell>
      </root>
    </mxGraphModel>
  </diagram>
</mxfile>
